<?xml version="1.0" encoding="UTF-8"?>
<svg id="dial" xmlns="http://www.w3.org/2000/svg" viewBox="0 0 160 90">
  <defs>
    <style>
      .cls-1, .cls-2, .cls-3, .cls-4 {
        stroke-width: 0px;
      }

      .cls-2 {
        fill: #f8b20e;
      }

      .cls-3 {
        fill: #e51875;
      }

      .cls-4 {
        fill: #00b0d5;
      }
    </style>
  </defs>
  <g>
    <path class="cls-4" d="m62.37,49.23L40,10.49C16.1,24.32,0,50.15,0,79.76h44.74c0-13.05,7.09-24.43,17.63-30.53Z"/>
    <path class="cls-3" d="m120,10.49l-22.37,38.74c10.54,6.1,17.63,17.48,17.63,30.53h44.74c0-29.61-16.1-55.44-40-69.27Z"/>
    <path class="cls-2" d="m80,44.5c6.42,0,12.44,1.73,17.63,4.73l22.37-38.74C108.23,3.68,94.57-.24,80-.24s-28.23,3.92-40,10.73l22.37,38.74c5.19-3,11.2-4.73,17.63-4.73Z"/>
  </g>
  <path class="cls-1" d="m75.75,72.4l52.11-20.27-43.61,34.99c-3.7,2.97-9.12,2.38-12.09-1.33-2.97-3.7-2.38-9.12,1.33-12.09.69-.56,1.48-1,2.26-1.31,0,0-.78.31,0,0Z"/>
</svg>