<svg xmlns:svg="http://www.w3.org/2000/svg" xmlns="http://www.w3.org/2000/svg" width="210" height="35" viewBox="0 0 210 35" version="1.1"><style>.s0{fill:#ffc000;}.s1{fill:#231f20;}</style><style>.s0{fill:#ffc000;}.s1{fill:#231f20;}</style><defs><clipPath clipPathUnits="userSpaceOnUse"><path d="m0 0 841.9 0 0 595.3L0 595.3 0 0Z"/></clipPath><clipPath clipPathUnits="userSpaceOnUse"><path d="m0 0 841.9 0 0 595.3L0 595.3 0 0Z"/></clipPath></defs><g transform="matrix(1.0777734,0,0,1.0993709,-441.3948,-540.94829)"><g transform="matrix(0.69289597,0,0,0.69289597,124.87325,162.18636)"><g transform="matrix(1.25,0,0,-1.25,432.62057,499.58617)"><path d="M0 0-4 6.9C-4 7-4.2 7.1-4.3 7.1l-8 0c-0.1 0-0.3-0.1-0.3-0.2l-4-6.9c0-0.1 0-0.3 0-0.4l4-6.9c0-0.1 0.2-0.2 0.3-0.2l8 0c0.1 0 0.3 0.1 0.3 0.2l0.2 0.3c0 0 0 0.1 0 0.1L0-0.3c0 0.1 0 0.2 0 0.3" fill="#ffc000"/></g><g transform="matrix(1.25,0,0,-1.25,450.64995,488.20267)"><path d="m0 0-4 6.9c-0.1 0.2-0.4 0.4-0.6 0.4l-8 0c-0.2 0-0.5-0.2-0.6-0.4L-17.3 0c-0.1-0.2-0.1-0.6 0-0.7l4-6.9c0.1-0.2 0.4-0.4 0.6-0.4l8 0c0.2 0 0.5 0.2 0.6 0.4L0-0.7c0.1 0.1 0.1 0.5 0 0.7" fill="#ffc000"/></g><g transform="matrix(1.25,0,0,-1.25,445.09907,500.37117)"><path d="m0 0-8 0c-0.1 0-0.3-0.1-0.3-0.2l-0.2-0.3c0 0 0 0 0-0.1l-3.8-6.6c0-0.1 0-0.3 0-0.3l4-6.9c0-0.1 0.2-0.2 0.3-0.2l8 0c0.1 0 0.3 0.1 0.3 0.2l4 6.9c0 0.1 0 0.3 0 0.4l-4 6.9C0.3-0.1 0.1 0 0 0" fill="#ffc000"/></g></g><g transform="matrix(0.69289597,0,0,0.69289597,124.87325,162.18636)"><g transform="matrix(1.25,0,0,-1.25,589.96782,499.24855)"><path d="m0 0c0 5 3.8 9 8.9 9 3 0 5.2-1.2 6.7-2.6L14.3 5C13 6.2 11.3 7.2 8.9 7.2 4.9 7.2 2.1 3.9 2.1 0c0-3.9 2.9-7.2 6.8-7.2 2.4 0 4.1 0.9 5.4 2.2l1.3-1.4C14.1-7.9 11.9-9 8.9-9 3.8-9 0-5 0 0" fill="#231f20"/></g><path d="m613.8 479.1 2.5 0 0 31.1-2.5 0 0-31.1z" fill="#231f20"/><g transform="matrix(1.25,0,0,-1.25,620.6087,499.24855)"><path d="m0 0c0 5 3.8 9 9.1 9 5.3 0 9.1-4.1 9.1-9 0-5-3.8-9-9.1-9C3.8-9 0-5 0 0m16.1 0c0 3.9-2.8 7.2-7 7.2-4.2 0-7-3.3-7-7.2 0-3.9 2.8-7.2 7-7.2 4.2 0 7 3.3 7 7.2" fill="#231f20"/></g><g transform="matrix(1.25,0,0,-1.25,662.91607,507.13917)"><path d="m0 0c-1.4-2-3.8-2.7-6-2.7-3.7 0-6.5 2.5-6.5 6.7l0 11.1 2 0 0-10.8c0-3.3 2-5.2 5-5.2 2.9 0 4.8 1.8 5.5 4.3l0 11.7 2 0L2-2.4 0-2.5 0 0Z" fill="#231f20"/></g><g transform="matrix(1.25,0,0,-1.25,688.50807,507.22705)"><path d="m0 0c-1.7-1.8-3.9-2.7-6.5-2.7-5.2 0-8.9 4.1-8.9 9 0 5 3.7 9 8.9 9 2.6 0 4.8-0.9 6.5-2.7l0 9.8 2 0L2-2.5 0-2.4 0 0Zm0 2.7 0 7.4c-1.1 1.9-3.4 3.5-6.5 3.5-4 0-6.8-3.3-6.8-7.2 0-3.9 2.8-7.2 6.8-7.2 3.1 0 5.4 1.5 6.5 3.5" fill="#231f20"/></g></g><g transform="matrix(0.69289597,0,0,0.69289597,124.87325,162.18636)"><g transform="matrix(1.25,0,0,-1.25,472.52857,487.7138)"><path d="m0 0c-1.9 0-3.6-0.6-4.7-1.7l0 1.4-4.2 0 0-17.9 4.2 0 0 11.2c0.7 1.9 2 2.9 4 2.9 2.5 0 3.8-1.9 3.8-3.7l0-10.4 4.2 0 0 10.5C7.3-3 4.4 0 0 0" fill="#231f20"/></g><g transform="matrix(1.25,0,0,-1.25,495.97883,487.71467)"><path d="m0 0c-5.2 0-9.2-4-9.2-9.2 0-5.3 4-9.2 9.2-9.2 2.9 0 5.6 1.2 7.3 3.1l0.1 0.1-2.8 3-0.1-0.1c-0.6-0.7-2.1-1.9-4.4-1.9-2.5 0-4.4 1.5-4.8 3.8l13.3 0 0 1.2C8.3-3.5 5 0 0 0m-4.6-7.1c0.7 1.9 2.4 3.2 4.3 3.2 2.2 0 3.7-1.1 4.2-3.2l-8.5 0z" fill="#231f20"/></g><g transform="matrix(1.25,0,0,-1.25,520.61695,492.8653)"><path d="M0 0C2 0 3.2-1 3.9-1.8L4.1-1.9 7 1 6.8 1.1c-1.8 2-4.1 3-6.8 3-5.3 0-9.2-4-9.2-9.2 0-5.3 4-9.2 9.2-9.2 2.7 0 5 1 6.8 3l0.1 0.1-2.9 3-0.1-0.1C3.2-9.3 2-10.2 0-10.2c-2.8 0-4.9 2.2-4.9 5.1 0 2.9 2.1 5.1 4.9 5.1" fill="#231f20"/></g><g transform="matrix(1.25,0,0,-1.25,545.6077,492.82155)"><path d="m0 0 0.9 3.8-5.4 0 0 5.4-4.2-2.1 0-3.3-3.5 0 1-3.8 2.5 0 0-8.6c0-3.5 2.1-5.5 5.6-5.5l3.6 0 0 3.9-2.6 0c-2 0-2.3 0.8-2.3 2.4L-4.5 0 0 0Z" fill="#231f20"/></g><g transform="matrix(1.25,0,0,-1.25,565.03582,489.45567)"><path d="m0 0c-1.3 0.9-2.8 1.4-4.5 1.4-5.2 0-9.2-4-9.2-9.2 0-5.3 4-9.2 9.2-9.2 1.7 0 3.3 0.5 4.5 1.4l0-1.1 4.2 0 0 17.9L0 1.1 0 0Zm0-4.9 0-5.9c-0.9-1.4-2.7-2.3-4.5-2.3-2.8 0-4.9 2.2-4.9 5.2 0 3 2.1 5.2 4.9 5.2 1.8 0 3.5-0.9 4.5-2.3" fill="#231f20"/></g><g transform="matrix(1.25,0,0,-1.25,587.0567,487.89355)"><path d="m0 0c-0.4 0.1-0.8 0.1-1.3 0.1-1.8 0-3.2-0.6-4.3-1.7l0 1.4-4.2 0 0-17.9 4.2 0 0 11.9c0.9 1.6 2.5 2 3.7 2 0.8 0 1.4-0.1 1.9-0.2l0.2-0.1 0 4.4L0 0Z" fill="#231f20"/></g></g></g></svg>