<svg xmlns:svg="http://www.w3.org/2000/svg" xmlns="http://www.w3.org/2000/svg" width="168" height="180" viewBox="0 0 168 180" version="1.1"><style>.s0{fill:#ffc000;}.s1{fill:#231f20;}</style><g transform="matrix(1.6901891,0,0,1.6901891,-520.30599,-729.48007)"><path d="m359.3 461.3-6.6-11.4c-0.1-0.1-0.4-0.3-0.5-0.3l-13.2 0c-0.1 0-0.4 0.2-0.5 0.3l-6.6 11.4c-0.1 0.1-0.1 0.5 0 0.6l6.6 11.4c0.1 0.1 0.4 0.3 0.5 0.3l13.2 0c0.1 0 0.4-0.2 0.5-0.3l0.3-0.5c0 0 0-0.1 0.1-0.1l6.2-10.8c0-0.1 0-0.4 0-0.5m23.8-15.1-6.6-11.4c-0.2-0.3-0.7-0.6-1.1-0.6l-13.2 0c-0.3 0-0.9 0.3-1.1 0.6l-6.6 11.4c-0.2 0.3-0.2 0.9 0 1.2l6.6 11.4c0.2 0.3 0.7 0.6 1.1 0.6l13.2 0c0.3 0 0.9-0.3 1.1-0.6l6.6-11.4c0.2-0.3 0.2-0.9 0-1.2m-7.4 16.1-13.2 0c-0.1 0-0.4 0.2-0.5 0.3l-0.3 0.5c0 0 0 0.1-0.1 0.1l-6.2 10.8c0 0.1 0 0.4 0 0.5L362 486c0.1 0.1 0.4 0.3 0.5 0.3l13.2 0c0.1 0 0.4-0.2 0.5-0.3l6.6-11.4c0.1-0.1 0.1-0.5 0-0.6l-6.6-11.4c-0.1-0.1-0.4-0.3-0.5-0.3" fill="#ffc000"/></g><g transform="matrix(1.6901891,0,0,1.6901891,-519.22087,-736.65803)"><path d="m322.8 531.4c0-3.8 2.9-6.9 6.8-6.9 2.3 0 4 0.9 5.1 2l-1 1.1c-1-0.9-2.3-1.7-4.1-1.7-3 0-5.2 2.5-5.2 5.5 0 3 2.2 5.5 5.2 5.5 1.8 0 3.1-0.7 4.1-1.7l1 1.1c-1.1 1.1-2.8 2-5.1 2-3.9 0-6.8-3.1-6.8-6.9m14.5-12.2 1.5 0 0 18.9-1.5 0 0-18.9zm4.1 12.2c0-3.8 2.9-6.9 6.9-6.9 4 0 6.9 3.1 6.9 6.9 0 3.8-2.8 6.9-6.9 6.9-4 0-6.9-3.1-6.9-6.9m12.2 0c0-3-2.1-5.5-5.3-5.5-3.2 0-5.3 2.5-5.3 5.5 0 3 2.2 5.5 5.3 5.5 3.2 0 5.3-2.5 5.3-5.5m13.5 4.8c-1.1 1.5-2.8 2.1-4.6 2.1-2.8 0-4.9-1.9-4.9-5.1l0-8.4 1.5 0 0 8.2c0 2.5 1.5 3.9 3.8 3.9 2.2 0 3.7-1.4 4.2-3.2l0-8.9 1.5 0 0 13.3-1.5 0 0-1.9zm15.6 0.1c-1.3 1.4-3 2-4.9 2-4 0-6.8-3.1-6.8-6.9 0-3.8 2.8-6.9 6.8-6.9 1.9 0 3.6 0.7 4.9 2.1l0-7.4 1.5 0 0 18.9-1.5 0 0-1.8zm0-2.1 0-5.6c-0.9-1.5-2.6-2.6-4.9-2.6-3.1 0-5.2 2.5-5.2 5.5 0 3 2.1 5.5 5.2 5.5 2.4 0 4.1-1.2 4.9-2.7m-53.1-33.8c-1.4 0-2.7 0.5-3.6 1.3l0-1.1-3.2 0 0 13.6 3.2 0 0-8.5c0.5-1.5 1.6-2.2 3-2.2 1.9 0 2.9 1.5 2.9 2.8l0 7.9 3.2 0 0-7.9c0-3.6-2.2-5.9-5.5-5.9m14.3 0c-4 0-7 3-7 7 0 4 3 7 7 7 2.2 0 4.3-0.9 5.5-2.4l0.1-0.1-2.2-2.3-0.1 0.1c-0.5 0.6-1.6 1.5-3.4 1.5-1.9 0-3.3-1.2-3.7-2.9l10.1 0 0-0.9c-0.2-4.3-2.7-7-6.5-7m-3.5 5.4c0.5-1.5 1.8-2.4 3.3-2.4 1.7 0 2.8 0.9 3.2 2.4l-6.5 0zm18.6-2.2c1.5 0 2.4 0.7 3 1.4l0.1 0.1 2.2-2.3-0.1-0.1c-1.4-1.5-3.2-2.3-5.2-2.3-4 0-7 3-7 7 0 4 3 7 7 7 2 0 3.8-0.8 5.2-2.3l0.1-0.1-2.2-2.3-0.1 0.1c-0.5 0.6-1.5 1.4-3 1.4-2.2 0-3.7-1.6-3.7-3.9 0-2.3 1.6-3.9 3.7-3.9m15.2 0.1 0.7-2.9-4.1 0 0-4.1-3.2 1.6 0 2.5-2.6 0 0.7 2.9 1.9 0 0 6.5c0 2.6 1.6 4.2 4.2 4.2l2.7 0 0-3-2 0c-1.5 0-1.8-0.6-1.8-1.8l0-5.9 3.4 0zm11.8-2c-1-0.7-2.1-1.1-3.4-1.1-4 0-7 3-7 7 0 4 3 7 7 7 1.3 0 2.5-0.4 3.4-1l0 0.8 3.2 0 0-13.6-3.2 0 0 0.8zm0 3.7 0 4.4c-0.7 1.1-2 1.7-3.4 1.7-2.2 0-3.7-1.7-3.7-3.9 0-2.3 1.6-3.9 3.7-3.9 1.4 0 2.7 0.7 3.4 1.7m13.4-4.6c-0.3-0.1-0.6-0.1-1-0.1-1.4 0-2.5 0.4-3.3 1.3l0-1.1-3.2 0 0 13.6 3.2 0 0-9.1c0.7-1.2 1.9-1.5 2.8-1.5 0.6 0 1.1 0.1 1.4 0.2l0.2 0.1 0-3.4-0.1 0z" fill="#231f20"/></g></svg>